<mxfile host="www.draw.io" modified="2019-11-08T15:41:26.973Z" agent="Mozilla/5.0 (Windows NT 10.0; WOW64) AppleWebKit/537.36 (KHTML, like Gecko) Chrome/71.0.3578.98 Safari/537.36" etag="wmEzkzCHOwcMM6h9PxvT" version="12.2.3" type="github" pages="1">
  <diagram id="s-Ka68XKXWWt9sQ5c1fh" name="Page-1">
    <mxGraphModel dx="1024" dy="1686" grid="1" gridSize="10" guides="1" tooltips="1" connect="1" arrows="1" fold="1" page="1" pageScale="1" pageWidth="827" pageHeight="1169" math="0" shadow="0">
      <root>
        <mxCell id="0"/>
        <mxCell id="1" parent="0"/>
        <mxCell id="xRIRZzND4aqbo7Znnav8-68" value="数据存储" style="rounded=0;whiteSpace=wrap;html=1;labelBackgroundColor=none;fontSize=16;" parent="1" vertex="1">
          <mxGeometry x="37" y="600" width="333" height="110" as="geometry"/>
        </mxCell>
        <mxCell id="xRIRZzND4aqbo7Znnav8-66" value="" style="rounded=0;whiteSpace=wrap;html=1;fontSize=16;labelBorderColor=#000000;labelBackgroundColor=#99CCFF;" parent="1" vertex="1">
          <mxGeometry x="397" y="90" width="103" height="57" as="geometry"/>
        </mxCell>
        <mxCell id="xRIRZzND4aqbo7Znnav8-26" value="" style="rounded=0;whiteSpace=wrap;html=1;labelBackgroundColor=none;fontSize=16;" parent="1" vertex="1">
          <mxGeometry x="50" y="-30" width="580" height="360" as="geometry"/>
        </mxCell>
        <mxCell id="xRIRZzND4aqbo7Znnav8-11" value="" style="rounded=0;whiteSpace=wrap;html=1;" parent="1" vertex="1">
          <mxGeometry x="390" y="30" width="220" height="260" as="geometry"/>
        </mxCell>
        <mxCell id="xRIRZzND4aqbo7Znnav8-18" value="" style="rounded=0;whiteSpace=wrap;html=1;fontSize=16;labelBorderColor=#000000;labelBackgroundColor=#99CCFF;" parent="1" vertex="1">
          <mxGeometry x="397" y="147.5" width="90" height="120" as="geometry"/>
        </mxCell>
        <mxCell id="xRIRZzND4aqbo7Znnav8-9" value="" style="rounded=0;whiteSpace=wrap;html=1;" parent="1" vertex="1">
          <mxGeometry x="70" y="30" width="300" height="260" as="geometry"/>
        </mxCell>
        <mxCell id="xRIRZzND4aqbo7Znnav8-3" value="" style="rounded=0;whiteSpace=wrap;html=1;" parent="1" vertex="1">
          <mxGeometry x="80" y="90" width="260" height="160" as="geometry"/>
        </mxCell>
        <mxCell id="xRIRZzND4aqbo7Znnav8-6" value="采集存储" style="rounded=1;whiteSpace=wrap;html=1;" parent="1" vertex="1">
          <mxGeometry x="110" y="207.5" width="200" height="30" as="geometry"/>
        </mxCell>
        <mxCell id="xRIRZzND4aqbo7Znnav8-7" value="Prometheus" style="text;html=1;resizable=0;autosize=1;align=center;verticalAlign=middle;points=[];fillColor=none;strokeColor=none;rounded=0;" parent="1" vertex="1">
          <mxGeometry x="170" y="70" width="80" height="20" as="geometry"/>
        </mxCell>
        <mxCell id="xRIRZzND4aqbo7Znnav8-10" value="主机和应用" style="text;html=1;strokeColor=none;fillColor=none;align=center;verticalAlign=middle;whiteSpace=wrap;rounded=0;fontStyle=1;fontSize=16;" parent="1" vertex="1">
          <mxGeometry x="120" y="40" width="200" height="20" as="geometry"/>
        </mxCell>
        <mxCell id="xRIRZzND4aqbo7Znnav8-12" value="网络设备" style="text;html=1;strokeColor=none;fillColor=none;align=center;verticalAlign=middle;whiteSpace=wrap;rounded=0;fontStyle=1;fontSize=16;" parent="1" vertex="1">
          <mxGeometry x="390" y="40" width="200" height="20" as="geometry"/>
        </mxCell>
        <mxCell id="xRIRZzND4aqbo7Znnav8-14" value="自研Agent" style="text;html=1;resizable=0;autosize=1;align=center;verticalAlign=middle;points=[];fillColor=none;strokeColor=none;rounded=0;" parent="1" vertex="1">
          <mxGeometry x="400" y="70" width="70" height="20" as="geometry"/>
        </mxCell>
        <mxCell id="xRIRZzND4aqbo7Znnav8-17" value="Syslog" style="whiteSpace=wrap;html=1;aspect=fixed;" parent="1" vertex="1">
          <mxGeometry x="500" y="100" width="40" height="40" as="geometry"/>
        </mxCell>
        <mxCell id="xRIRZzND4aqbo7Znnav8-21" value="流量采集" style="rounded=0;whiteSpace=wrap;html=1;labelBackgroundColor=none;fontSize=16;" parent="1" vertex="1">
          <mxGeometry x="400" y="162.5" width="80" height="35" as="geometry"/>
        </mxCell>
        <mxCell id="xRIRZzND4aqbo7Znnav8-22" value="延迟采集" style="rounded=0;whiteSpace=wrap;html=1;labelBackgroundColor=none;fontSize=16;" parent="1" vertex="1">
          <mxGeometry x="402" y="210" width="80" height="35" as="geometry"/>
        </mxCell>
        <mxCell id="xRIRZzND4aqbo7Znnav8-23" value="&lt;span style=&quot;white-space: normal&quot;&gt;Logstash&lt;/span&gt;" style="text;html=1;resizable=0;autosize=1;align=center;verticalAlign=middle;points=[];fillColor=none;strokeColor=none;rounded=0;" parent="1" vertex="1">
          <mxGeometry x="525" y="70" width="60" height="20" as="geometry"/>
        </mxCell>
        <mxCell id="xRIRZzND4aqbo7Znnav8-24" value="&lt;h3 class=&quot;t c-gap-bottom-small&quot; style=&quot;margin: 0px 0px 5px ; padding: 0px ; list-style: none ; font-weight: 400 ; font-size: medium ; line-height: 1.54 ; color: rgb(51 , 51 , 51) ; font-family: &amp;#34;arial&amp;#34; ; background-color: rgb(255 , 255 , 255)&quot;&gt;&lt;a href=&quot;http://www.baidu.com/link?url=Patz7pVw6jlj_wjHwC4qsotqkCy5nVoedUmPy4fyY0b3_rsEfYVRh3n2yjOwKgi9QKzBwg7pm7ycduqjZHEXiNnXNNAVjFWL_WOg4zGzB_a&quot; target=&quot;_blank&quot;&gt;elastic&lt;span style=&quot;color: rgb(204 , 0 , 0)&quot;&gt;search&lt;/span&gt;&lt;/a&gt;&lt;/h3&gt;" style="rounded=1;whiteSpace=wrap;html=1;labelBackgroundColor=none;fontSize=16;" parent="1" vertex="1">
          <mxGeometry x="44" y="630" width="116" height="60" as="geometry"/>
        </mxCell>
        <mxCell id="xRIRZzND4aqbo7Znnav8-25" value="数据处理服务" style="rounded=0;whiteSpace=wrap;html=1;labelBackgroundColor=none;fontSize=16;" parent="1" vertex="1">
          <mxGeometry x="47" y="510" width="283" height="60" as="geometry"/>
        </mxCell>
        <mxCell id="xRIRZzND4aqbo7Znnav8-27" value="信息安全部" style="text;html=1;strokeColor=none;fillColor=none;align=center;verticalAlign=middle;whiteSpace=wrap;rounded=0;labelBackgroundColor=none;fontSize=16;" parent="1" vertex="1">
          <mxGeometry x="270" y="-10" width="150" height="20" as="geometry"/>
        </mxCell>
        <mxCell id="xRIRZzND4aqbo7Znnav8-28" value="" style="rounded=0;whiteSpace=wrap;html=1;labelBackgroundColor=none;fontSize=16;" parent="1" vertex="1">
          <mxGeometry x="650" y="-30" width="300" height="360" as="geometry"/>
        </mxCell>
        <mxCell id="xRIRZzND4aqbo7Znnav8-29" value="" style="rounded=0;whiteSpace=wrap;html=1;" parent="1" vertex="1">
          <mxGeometry x="690" y="30" width="220" height="260" as="geometry"/>
        </mxCell>
        <mxCell id="xRIRZzND4aqbo7Znnav8-30" value="主机、网络设备" style="text;html=1;fontSize=16;fontStyle=1" parent="1" vertex="1">
          <mxGeometry x="740" y="40" width="110" height="30" as="geometry"/>
        </mxCell>
        <mxCell id="xRIRZzND4aqbo7Znnav8-32" value="Zabbix" style="text;html=1;resizable=0;autosize=1;align=center;verticalAlign=middle;points=[];fillColor=none;strokeColor=none;rounded=0;" parent="1" vertex="1">
          <mxGeometry x="775" y="70" width="50" height="20" as="geometry"/>
        </mxCell>
        <mxCell id="xRIRZzND4aqbo7Znnav8-33" value="Zabbix Agent" style="rounded=0;whiteSpace=wrap;html=1;labelBackgroundColor=none;fontSize=16;" parent="1" vertex="1">
          <mxGeometry x="704" y="97.5" width="80" height="35" as="geometry"/>
        </mxCell>
        <mxCell id="xRIRZzND4aqbo7Znnav8-34" value="Zabbix Server" style="rounded=0;whiteSpace=wrap;html=1;labelBackgroundColor=none;fontSize=16;" parent="1" vertex="1">
          <mxGeometry x="704" y="197" width="196" height="35" as="geometry"/>
        </mxCell>
        <mxCell id="xRIRZzND4aqbo7Znnav8-67" style="edgeStyle=orthogonalEdgeStyle;rounded=0;orthogonalLoop=1;jettySize=auto;html=1;entryX=0.478;entryY=0.003;entryDx=0;entryDy=0;entryPerimeter=0;fontSize=16;" parent="1" source="xRIRZzND4aqbo7Znnav8-35" target="xRIRZzND4aqbo7Znnav8-44" edge="1">
          <mxGeometry relative="1" as="geometry"/>
        </mxCell>
        <mxCell id="xRIRZzND4aqbo7Znnav8-35" value="Kafka" style="rounded=0;whiteSpace=wrap;html=1;labelBackgroundColor=none;fontSize=16;" parent="1" vertex="1">
          <mxGeometry x="47" y="380" width="913" height="60" as="geometry"/>
        </mxCell>
        <mxCell id="xRIRZzND4aqbo7Znnav8-36" value="" style="shape=flexArrow;endArrow=classic;html=1;fontSize=16;exitX=0.287;exitY=1.003;exitDx=0;exitDy=0;exitPerimeter=0;entryX=0.185;entryY=0.01;entryDx=0;entryDy=0;entryPerimeter=0;" parent="1" source="xRIRZzND4aqbo7Znnav8-26" target="xRIRZzND4aqbo7Znnav8-35" edge="1">
          <mxGeometry width="50" height="50" relative="1" as="geometry">
            <mxPoint x="210" y="350" as="sourcePoint"/>
            <mxPoint x="260" y="300" as="targetPoint"/>
          </mxGeometry>
        </mxCell>
        <mxCell id="xRIRZzND4aqbo7Znnav8-37" value="" style="shape=flexArrow;endArrow=classic;html=1;fontSize=16;entryX=0.185;entryY=0.01;entryDx=0;entryDy=0;entryPerimeter=0;" parent="1" edge="1">
          <mxGeometry width="50" height="50" relative="1" as="geometry">
            <mxPoint x="514" y="330" as="sourcePoint"/>
            <mxPoint x="514.405" y="379.5999999999999" as="targetPoint"/>
          </mxGeometry>
        </mxCell>
        <mxCell id="xRIRZzND4aqbo7Znnav8-38" value="" style="shape=flexArrow;endArrow=classic;html=1;fontSize=16;exitX=0.5;exitY=1;exitDx=0;exitDy=0;entryX=0.825;entryY=0.01;entryDx=0;entryDy=0;entryPerimeter=0;" parent="1" source="xRIRZzND4aqbo7Znnav8-28" target="xRIRZzND4aqbo7Znnav8-35" edge="1">
          <mxGeometry width="50" height="50" relative="1" as="geometry">
            <mxPoint x="827.46" y="310.02" as="sourcePoint"/>
            <mxPoint x="810" y="390" as="targetPoint"/>
          </mxGeometry>
        </mxCell>
        <mxCell id="xRIRZzND4aqbo7Znnav8-40" value="适配器" style="rounded=1;whiteSpace=wrap;html=1;labelBackgroundColor=none;fontSize=16;" parent="1" vertex="1">
          <mxGeometry x="687" y="296" width="223" height="28" as="geometry"/>
        </mxCell>
        <mxCell id="xRIRZzND4aqbo7Znnav8-39" value="适配器" style="rounded=1;whiteSpace=wrap;html=1;labelBackgroundColor=none;fontSize=16;" parent="1" vertex="1">
          <mxGeometry x="70" y="297" width="300" height="30" as="geometry"/>
        </mxCell>
        <mxCell id="xRIRZzND4aqbo7Znnav8-41" value="`" style="shape=flexArrow;endArrow=classic;html=1;fontSize=16;exitX=0.287;exitY=1.003;exitDx=0;exitDy=0;exitPerimeter=0;" parent="1" edge="1">
          <mxGeometry width="50" height="50" relative="1" as="geometry">
            <mxPoint x="187.96000000000004" y="575.0799999999999" as="sourcePoint"/>
            <mxPoint x="187" y="610" as="targetPoint"/>
          </mxGeometry>
        </mxCell>
        <mxCell id="xRIRZzND4aqbo7Znnav8-43" value="" style="endArrow=classic;startArrow=classic;html=1;fontSize=16;exitX=0.5;exitY=0;exitDx=0;exitDy=0;entryX=0.5;entryY=1;entryDx=0;entryDy=0;" parent="1" source="xRIRZzND4aqbo7Znnav8-25" target="xRIRZzND4aqbo7Znnav8-35" edge="1">
          <mxGeometry width="50" height="50" relative="1" as="geometry">
            <mxPoint x="180" y="530" as="sourcePoint"/>
            <mxPoint x="230" y="480" as="targetPoint"/>
          </mxGeometry>
        </mxCell>
        <mxCell id="xRIRZzND4aqbo7Znnav8-44" value="告警服务" style="rounded=0;whiteSpace=wrap;html=1;labelBackgroundColor=none;fontSize=16;" parent="1" vertex="1">
          <mxGeometry x="402" y="510" width="283" height="60" as="geometry"/>
        </mxCell>
        <mxCell id="xRIRZzND4aqbo7Znnav8-46" value="微信、短信、邮件、综合告警" style="rounded=0;whiteSpace=wrap;html=1;labelBackgroundColor=none;fontSize=16;" parent="1" vertex="1">
          <mxGeometry x="402" y="630" width="283" height="60" as="geometry"/>
        </mxCell>
        <mxCell id="xRIRZzND4aqbo7Znnav8-47" value="`" style="shape=flexArrow;endArrow=classic;html=1;fontSize=16;exitX=0.287;exitY=1.003;exitDx=0;exitDy=0;exitPerimeter=0;entryX=0.185;entryY=0.01;entryDx=0;entryDy=0;entryPerimeter=0;" parent="1" edge="1">
          <mxGeometry width="50" height="50" relative="1" as="geometry">
            <mxPoint x="544.96" y="580.5799999999999" as="sourcePoint"/>
            <mxPoint x="544.405" y="630.0999999999999" as="targetPoint"/>
          </mxGeometry>
        </mxCell>
        <mxCell id="xRIRZzND4aqbo7Znnav8-48" value="网络IT中心" style="text;html=1;strokeColor=none;fillColor=none;align=center;verticalAlign=middle;whiteSpace=wrap;rounded=0;labelBackgroundColor=none;fontSize=16;" parent="1" vertex="1">
          <mxGeometry x="730" y="-10" width="150" height="20" as="geometry"/>
        </mxCell>
        <mxCell id="xRIRZzND4aqbo7Znnav8-49" value="网关OpenResty" style="rounded=1;whiteSpace=wrap;html=1;" parent="1" vertex="1">
          <mxGeometry x="110" y="172.5" width="200" height="30" as="geometry"/>
        </mxCell>
        <mxCell id="xRIRZzND4aqbo7Znnav8-50" value="&lt;h3 class=&quot;t c-gap-bottom-small&quot; style=&quot;margin: 0px 0px 5px ; padding: 0px ; list-style: none ; font-weight: 400 ; font-size: medium ; line-height: 1.54 ; color: rgb(51 , 51 , 51) ; font-family: &amp;#34;arial&amp;#34; ; background-color: rgb(255 , 255 , 255)&quot;&gt;redis&lt;/h3&gt;" style="rounded=1;whiteSpace=wrap;html=1;labelBackgroundColor=none;fontSize=16;" parent="1" vertex="1">
          <mxGeometry x="170" y="630" width="90" height="60" as="geometry"/>
        </mxCell>
        <mxCell id="xRIRZzND4aqbo7Znnav8-51" value="&lt;h3 class=&quot;t c-gap-bottom-small&quot; style=&quot;margin: 0px 0px 5px ; padding: 0px ; list-style: none ; font-weight: 400 ; font-size: medium ; line-height: 1.54 ; color: rgb(51 , 51 , 51) ; font-family: &amp;#34;arial&amp;#34; ; background-color: rgb(255 , 255 , 255)&quot;&gt;mysql&lt;/h3&gt;" style="rounded=1;whiteSpace=wrap;html=1;labelBackgroundColor=none;fontSize=16;" parent="1" vertex="1">
          <mxGeometry x="270" y="630" width="90" height="60" as="geometry"/>
        </mxCell>
        <mxCell id="xRIRZzND4aqbo7Znnav8-53" value="Syslog" style="whiteSpace=wrap;html=1;aspect=fixed;" parent="1" vertex="1">
          <mxGeometry x="555" y="100" width="40" height="40" as="geometry"/>
        </mxCell>
        <mxCell id="xRIRZzND4aqbo7Znnav8-54" value="&lt;span style=&quot;font-size: 12px ; white-space: normal&quot;&gt;Logstash&lt;/span&gt;" style="rounded=0;whiteSpace=wrap;html=1;labelBackgroundColor=none;fontSize=16;" parent="1" vertex="1">
          <mxGeometry x="500" y="180" width="100" height="40" as="geometry"/>
        </mxCell>
        <mxCell id="xRIRZzND4aqbo7Znnav8-55" value="Zabbix Agent" style="rounded=0;whiteSpace=wrap;html=1;labelBackgroundColor=none;fontSize=16;" parent="1" vertex="1">
          <mxGeometry x="818.5" y="97.5" width="80" height="35" as="geometry"/>
        </mxCell>
        <mxCell id="xRIRZzND4aqbo7Znnav8-57" value="" style="shape=flexArrow;endArrow=classic;html=1;fontSize=16;width=15;startSize=2.11;endSize=2.11;" parent="1" edge="1">
          <mxGeometry width="50" height="50" relative="1" as="geometry">
            <mxPoint x="550" y="150" as="sourcePoint"/>
            <mxPoint x="550" y="180" as="targetPoint"/>
          </mxGeometry>
        </mxCell>
        <mxCell id="xRIRZzND4aqbo7Znnav8-58" value="性能Exporter" style="rounded=0;whiteSpace=wrap;html=1;labelBackgroundColor=none;fontSize=16;" parent="1" vertex="1">
          <mxGeometry x="110" y="100" width="70" height="40" as="geometry"/>
        </mxCell>
        <mxCell id="xRIRZzND4aqbo7Znnav8-59" value="中间件Exporter&lt;span style=&quot;color: rgba(0 , 0 , 0 , 0) ; font-family: monospace ; font-size: 0px ; white-space: nowrap&quot;&gt;%3CmxGraphModel%3E%3Croot%3E%3CmxCell%20id%3D%220%22%2F%3E%3CmxCell%20id%3D%221%22%20parent%3D%220%22%2F%3E%3CmxCell%20id%3D%222%22%20value%3D%22%E6%80%A7%E8%83%BDExporter%22%20style%3D%22rounded%3D0%3BwhiteSpace%3Dwrap%3Bhtml%3D1%3BlabelBackgroundColor%3Dnone%3BfontSize%3D16%3B%22%20vertex%3D%221%22%20parent%3D%221%22%3E%3CmxGeometry%20x%3D%22110%22%20y%3D%22100%22%20width%3D%2270%22%20height%3D%2240%22%20as%3D%22geometry%22%2F%3E%3C%2FmxCell%3E%3C%2Froot%3E%3C%2FmxGraphModel%3E&lt;/span&gt;" style="rounded=0;whiteSpace=wrap;html=1;labelBackgroundColor=none;fontSize=16;" parent="1" vertex="1">
          <mxGeometry x="190" y="100" width="70" height="40" as="geometry"/>
        </mxCell>
        <mxCell id="xRIRZzND4aqbo7Znnav8-60" value="应用Exporter&lt;span style=&quot;color: rgba(0 , 0 , 0 , 0) ; font-family: monospace ; font-size: 0px ; white-space: nowrap&quot;&gt;%3CmxGraphModel%3E%3Croot%3E%3CmxCell%20id%3D%220%22%2F%3E%3CmxCell%20id%3D%221%22%20parent%3D%220%22%2F%3E%3CmxCell%20id%3D%222%22%20value%3D%22%E6%80%A7%E8%83%BDExporter%22%20style%3D%22rounded%3D0%3BwhiteSpace%3Dwrap%3Bhtml%3D1%3BlabelBackgroundColor%3Dnone%3BfontSize%3D16%3B%22%20vertex%3D%221%22%20parent%3D%221%22%3E%3CmxGeometry%20x%3D%22110%22%20y%3D%22100%22%20width%3D%2270%22%20height%3D%2240%22%20as%3D%22geometry%22%2F%3E%3C%2FmxCell%3E%3C%2Froot%3E%3C%2FmxGraphModel%3E&lt;/span&gt;" style="rounded=0;whiteSpace=wrap;html=1;labelBackgroundColor=none;fontSize=16;" parent="1" vertex="1">
          <mxGeometry x="270" y="100" width="60" height="40" as="geometry"/>
        </mxCell>
        <mxCell id="xRIRZzND4aqbo7Znnav8-61" value="" style="shape=flexArrow;endArrow=classic;html=1;fontSize=16;" parent="1" edge="1">
          <mxGeometry width="50" height="50" relative="1" as="geometry">
            <mxPoint x="216" y="171" as="sourcePoint"/>
            <mxPoint x="216" y="140" as="targetPoint"/>
          </mxGeometry>
        </mxCell>
        <mxCell id="xRIRZzND4aqbo7Znnav8-62" value="" style="shape=flexArrow;endArrow=classic;startArrow=classic;html=1;fontSize=16;" parent="1" source="xRIRZzND4aqbo7Znnav8-34" edge="1">
          <mxGeometry width="50" height="50" relative="1" as="geometry">
            <mxPoint x="802" y="139.28932188134524" as="sourcePoint"/>
            <mxPoint x="802" y="130" as="targetPoint"/>
          </mxGeometry>
        </mxCell>
        <mxCell id="xRIRZzND4aqbo7Znnav8-64" value="设备" style="rounded=0;whiteSpace=wrap;html=1;labelBackgroundColor=none;fontSize=16;" parent="1" vertex="1">
          <mxGeometry x="397" y="99" width="43" height="40" as="geometry"/>
        </mxCell>
        <mxCell id="xRIRZzND4aqbo7Znnav8-65" value="设备" style="rounded=0;whiteSpace=wrap;html=1;labelBackgroundColor=none;fontSize=16;" parent="1" vertex="1">
          <mxGeometry x="448.5" y="99" width="43" height="40" as="geometry"/>
        </mxCell>
        <mxCell id="xRIRZzND4aqbo7Znnav8-69" value="数据存储" style="text;html=1;strokeColor=none;fillColor=none;align=center;verticalAlign=middle;whiteSpace=wrap;rounded=0;labelBackgroundColor=none;fontSize=16;" parent="1" vertex="1">
          <mxGeometry x="134.5" y="606" width="111" height="20" as="geometry"/>
        </mxCell>
      </root>
    </mxGraphModel>
  </diagram>
</mxfile>
